<?xml version="1.0" encoding="UTF-8"?>
<svg xmlns="http://www.w3.org/2000/svg" version="1.1" width="500" height="500" viewBox="0 0 500 500"><rect x="0" y="0" width="500" height="500" fill="#ffffff"/><g transform="scale(17.241)"><g transform="translate(0,0)"><path fill-rule="evenodd" d="M10 0L10 2L11 2L11 0ZM12 0L12 1L13 1L13 0ZM16 0L16 1L14 1L14 2L16 2L16 3L17 3L17 4L18 4L18 7L19 7L19 5L20 5L20 3L21 3L21 0L19 0L19 1L17 1L17 0ZM8 1L8 2L9 2L9 1ZM19 1L19 2L17 2L17 3L18 3L18 4L19 4L19 2L20 2L20 1ZM12 2L12 4L15 4L15 3L13 3L13 2ZM8 3L8 4L9 4L9 5L8 5L8 7L9 7L9 8L6 8L6 9L5 9L5 8L0 8L0 9L1 9L1 10L0 10L0 11L1 11L1 13L2 13L2 14L1 14L1 15L0 15L0 16L1 16L1 15L3 15L3 17L0 17L0 21L1 21L1 18L2 18L2 21L3 21L3 20L4 20L4 19L7 19L7 18L9 18L9 19L8 19L8 20L10 20L10 21L8 21L8 23L11 23L11 24L10 24L10 25L12 25L12 26L13 26L13 27L12 27L12 29L13 29L13 28L14 28L14 29L18 29L18 28L14 28L14 27L18 27L18 26L19 26L19 24L17 24L17 25L16 25L16 24L15 24L15 25L16 25L16 26L14 26L14 25L12 25L12 23L13 23L13 22L14 22L14 23L17 23L17 22L19 22L19 23L20 23L20 27L19 27L19 28L21 28L21 29L22 29L22 28L21 28L21 25L25 25L25 26L22 26L22 27L23 27L23 29L24 29L24 27L25 27L25 28L26 28L26 29L27 29L27 28L28 28L28 26L29 26L29 23L27 23L27 22L29 22L29 20L28 20L28 19L27 19L27 16L28 16L28 15L27 15L27 12L28 12L28 11L27 11L27 12L25 12L25 13L21 13L21 12L22 12L22 11L23 11L23 12L24 12L24 11L25 11L25 9L26 9L26 8L25 8L25 9L24 9L24 8L23 8L23 9L22 9L22 8L20 8L20 9L19 9L19 10L20 10L20 9L21 9L21 12L20 12L20 13L19 13L19 14L18 14L18 16L17 16L17 15L16 15L16 14L15 14L15 15L14 15L14 16L13 16L13 17L12 17L12 15L13 15L13 14L11 14L11 15L9 15L9 14L8 14L8 13L11 13L11 12L8 12L8 10L9 10L9 9L10 9L10 11L11 11L11 9L12 9L12 10L13 10L13 9L14 9L14 11L16 11L16 12L17 12L17 13L18 13L18 12L19 12L19 11L18 11L18 12L17 12L17 10L15 10L15 9L18 9L18 8L15 8L15 6L16 6L16 7L17 7L17 6L16 6L16 5L14 5L14 8L13 8L13 9L12 9L12 7L13 7L13 5L11 5L11 6L10 6L10 4L11 4L11 3ZM9 6L9 7L10 7L10 6ZM11 6L11 7L12 7L12 6ZM20 6L20 7L21 7L21 6ZM10 8L10 9L11 9L11 8ZM27 8L27 9L28 9L28 10L29 10L29 9L28 9L28 8ZM3 9L3 10L1 10L1 11L3 11L3 10L4 10L4 12L2 12L2 13L3 13L3 15L4 15L4 16L5 16L5 17L4 17L4 18L3 18L3 19L4 19L4 18L5 18L5 17L6 17L6 18L7 18L7 17L6 17L6 16L7 16L7 15L8 15L8 14L7 14L7 13L8 13L8 12L7 12L7 11L5 11L5 9ZM6 9L6 10L8 10L8 9ZM23 10L23 11L24 11L24 10ZM12 11L12 13L15 13L15 12L13 12L13 11ZM5 12L5 13L7 13L7 12ZM20 13L20 14L19 14L19 16L18 16L18 17L17 17L17 16L16 16L16 15L15 15L15 17L14 17L14 18L12 18L12 17L11 17L11 16L10 16L10 18L11 18L11 22L13 22L13 21L12 21L12 19L13 19L13 20L14 20L14 19L15 19L15 18L16 18L16 17L17 17L17 19L16 19L16 21L14 21L14 22L16 22L16 21L17 21L17 20L18 20L18 21L19 21L19 20L22 20L22 19L23 19L23 20L24 20L24 19L25 19L25 21L26 21L26 20L27 20L27 19L25 19L25 18L24 18L24 19L23 19L23 18L22 18L22 17L26 17L26 16L27 16L27 15L26 15L26 13L25 13L25 16L24 16L24 15L23 15L23 16L22 16L22 14L21 14L21 13ZM28 13L28 14L29 14L29 13ZM5 14L5 15L7 15L7 14ZM8 16L8 17L9 17L9 16ZM20 16L20 17L18 17L18 19L19 19L19 18L20 18L20 17L21 17L21 16ZM28 17L28 18L29 18L29 17ZM21 18L21 19L22 19L22 18ZM5 20L5 21L7 21L7 20ZM21 21L21 24L24 24L24 21ZM22 22L22 23L23 23L23 22ZM26 23L26 24L25 24L25 25L26 25L26 24L27 24L27 23ZM8 24L8 29L9 29L9 24ZM10 26L10 27L11 27L11 26ZM25 26L25 27L26 27L26 28L27 28L27 26ZM0 0L0 7L7 7L7 0ZM1 1L1 6L6 6L6 1ZM2 2L2 5L5 5L5 2ZM22 0L22 7L29 7L29 0ZM23 1L23 6L28 6L28 1ZM24 2L24 5L27 5L27 2ZM0 22L0 29L7 29L7 22ZM1 23L1 28L6 28L6 23ZM2 24L2 27L5 27L5 24Z" fill="#000000"/></g></g></svg>
