<?xml version="1.0" encoding="UTF-8"?>
<svg xmlns="http://www.w3.org/2000/svg" version="1.1" width="500" height="500" viewBox="0 0 500 500"><rect x="0" y="0" width="500" height="500" fill="#ffffff"/><g transform="scale(17.241)"><g transform="translate(0,0)"><path fill-rule="evenodd" d="M9 0L9 1L8 1L8 2L9 2L9 3L8 3L8 4L10 4L10 7L11 7L11 4L12 4L12 5L13 5L13 6L12 6L12 9L13 9L13 8L14 8L14 9L15 9L15 8L14 8L14 7L15 7L15 6L16 6L16 8L17 8L17 9L16 9L16 10L15 10L15 11L14 11L14 12L15 12L15 13L12 13L12 11L13 11L13 10L11 10L11 11L10 11L10 9L11 9L11 8L6 8L6 9L7 9L7 10L6 10L6 11L5 11L5 8L0 8L0 11L1 11L1 9L2 9L2 10L4 10L4 11L5 11L5 13L7 13L7 14L6 14L6 15L7 15L7 16L5 16L5 17L7 17L7 18L4 18L4 17L3 17L3 16L2 16L2 15L1 15L1 14L2 14L2 13L3 13L3 15L4 15L4 12L3 12L3 11L2 11L2 12L1 12L1 14L0 14L0 16L1 16L1 17L0 17L0 21L1 21L1 17L3 17L3 18L4 18L4 19L7 19L7 20L5 20L5 21L8 21L8 23L11 23L11 22L9 22L9 21L8 21L8 20L9 20L9 19L11 19L11 21L12 21L12 22L13 22L13 23L12 23L12 25L13 25L13 24L14 24L14 25L15 25L15 24L14 24L14 23L16 23L16 24L17 24L17 26L15 26L15 27L14 27L14 28L15 28L15 29L19 29L19 28L21 28L21 29L22 29L22 28L21 28L21 25L25 25L25 26L22 26L22 27L23 27L23 29L24 29L24 27L25 27L25 28L26 28L26 29L27 29L27 28L28 28L28 26L29 26L29 25L28 25L28 24L29 24L29 23L28 23L28 24L26 24L26 23L27 23L27 22L29 22L29 20L28 20L28 19L27 19L27 16L28 16L28 15L27 15L27 12L28 12L28 11L27 11L27 12L25 12L25 13L21 13L21 12L22 12L22 11L23 11L23 12L24 12L24 11L25 11L25 9L26 9L26 8L25 8L25 9L24 9L24 8L23 8L23 9L22 9L22 8L20 8L20 9L19 9L19 10L20 10L20 9L21 9L21 12L20 12L20 13L19 13L19 14L18 14L18 16L17 16L17 17L16 17L16 16L14 16L14 15L17 15L17 13L18 13L18 12L19 12L19 11L18 11L18 12L17 12L17 13L16 13L16 11L17 11L17 9L18 9L18 8L17 8L17 6L16 6L16 4L12 4L12 2L13 2L13 1L11 1L11 2L10 2L10 0ZM15 0L15 1L17 1L17 2L16 2L16 3L17 3L17 4L18 4L18 7L19 7L19 5L20 5L20 3L21 3L21 0L19 0L19 1L17 1L17 0ZM19 1L19 2L17 2L17 3L18 3L18 4L19 4L19 2L20 2L20 1ZM14 2L14 3L15 3L15 2ZM10 3L10 4L11 4L11 3ZM8 5L8 7L9 7L9 5ZM13 6L13 7L14 7L14 6ZM20 6L20 7L21 7L21 6ZM27 8L27 9L28 9L28 10L29 10L29 9L28 9L28 8ZM8 10L8 11L6 11L6 12L7 12L7 13L9 13L9 12L8 12L8 11L9 11L9 10ZM23 10L23 11L24 11L24 10ZM10 12L10 13L11 13L11 14L9 14L9 16L7 16L7 17L9 17L9 18L13 18L13 19L12 19L12 21L15 21L15 22L16 22L16 21L15 21L15 20L18 20L18 21L19 21L19 20L22 20L22 19L23 19L23 20L24 20L24 19L25 19L25 21L26 21L26 20L27 20L27 19L25 19L25 18L24 18L24 19L23 19L23 18L22 18L22 17L26 17L26 16L27 16L27 15L26 15L26 13L25 13L25 16L24 16L24 15L23 15L23 16L22 16L22 14L21 14L21 13L20 13L20 14L19 14L19 16L18 16L18 17L17 17L17 19L15 19L15 18L16 18L16 17L14 17L14 16L13 16L13 17L12 17L12 15L13 15L13 14L12 14L12 13L11 13L11 12ZM15 13L15 14L16 14L16 13ZM28 13L28 14L29 14L29 13ZM10 15L10 17L11 17L11 15ZM20 16L20 17L18 17L18 19L19 19L19 18L20 18L20 17L21 17L21 16ZM28 17L28 18L29 18L29 17ZM21 18L21 19L22 19L22 18ZM2 19L2 21L4 21L4 20L3 20L3 19ZM14 19L14 20L15 20L15 19ZM21 21L21 24L24 24L24 21ZM17 22L17 24L19 24L19 26L18 26L18 27L16 27L16 28L19 28L19 27L20 27L20 23L19 23L19 22ZM22 22L22 23L23 23L23 22ZM8 24L8 29L12 29L12 27L13 27L13 26L11 26L11 25L10 25L10 24ZM25 24L25 25L26 25L26 24ZM9 25L9 26L10 26L10 27L11 27L11 26L10 26L10 25ZM25 26L25 27L26 27L26 28L27 28L27 26ZM0 0L0 7L7 7L7 0ZM1 1L1 6L6 6L6 1ZM2 2L2 5L5 5L5 2ZM22 0L22 7L29 7L29 0ZM23 1L23 6L28 6L28 1ZM24 2L24 5L27 5L27 2ZM0 22L0 29L7 29L7 22ZM1 23L1 28L6 28L6 23ZM2 24L2 27L5 27L5 24Z" fill="#000000"/></g></g></svg>
